<svg width="113" height="33" viewBox="0 0 113 33" fill="none" xmlns="http://www.w3.org/2000/svg">
<g clip-path="url(#clip0_28_25)">
<path d="M45.7903 6.87612C45.7903 9.07863 44.0363 10.8514 41.7773 10.8514H40.0579V14.4936H37.4375V2.90355H41.78C44.0416 2.90355 45.7929 4.6763 45.7929 6.87881L45.7903 6.87612ZM43.1672 6.87612C43.1672 6.03272 42.5772 5.3854 41.7747 5.3854H40.0552V8.36684H41.7747C42.5772 8.36684 43.1672 7.7222 43.1672 6.87612Z" fill="#1F1F21"/>
<path d="M54.7668 6.21536V14.4936H52.3086V13.7146C51.8674 14.327 51.0462 14.7246 49.9646 14.7246C48.3089 14.7246 46.9004 13.532 46.9004 11.2972V6.21268H49.3586V10.932C49.3586 11.958 49.9965 12.4388 50.7831 12.4388C51.684 12.4388 52.3059 11.9096 52.3059 10.7332V6.21268H54.7642L54.7668 6.21536Z" fill="#1F1F21"/>
<path d="M56.5713 2.40664H59.0295V14.4936H56.5713V2.40664Z" fill="#1F1F21"/>
<path d="M67.106 12.0117C67.106 13.9161 65.4663 14.7272 63.699 14.7272C62.0593 14.7272 60.8156 14.0987 60.1777 12.7557L62.3064 11.5309C62.5191 12.1594 62.9788 12.5086 63.699 12.5086C64.289 12.5086 64.584 12.326 64.584 11.9956C64.584 11.0851 60.5525 11.5658 60.5525 8.6999C60.5525 6.89492 62.0593 5.98437 63.7628 5.98437C65.0889 5.98437 66.2689 6.58066 66.9572 7.75712L64.8604 8.89866C64.6318 8.4689 64.3023 8.17076 63.7628 8.17076C63.3376 8.17076 63.0745 8.33729 63.0745 8.63543C63.0745 9.57821 67.106 8.94969 67.106 12.0144V12.0117Z" fill="#1F1F21"/>
<path d="M72.4138 12.5059C73.0862 12.5059 73.6575 12.24 73.9871 11.8774L75.9537 13.019C75.1511 14.1444 73.9392 14.7246 72.3819 14.7246C69.5808 14.7246 67.8428 12.8202 67.8428 10.3518C67.8428 7.88336 69.6127 5.979 72.2012 5.979C74.593 5.979 76.363 7.85113 76.363 10.3518C76.363 10.6983 76.3311 11.0313 76.2646 11.3456H70.4499C70.7608 12.2078 71.5155 12.5059 72.4165 12.5059H72.4138ZM73.9233 9.49495C73.6602 8.53337 72.9241 8.18688 72.1852 8.18688C71.2524 8.18688 70.6279 8.65155 70.3994 9.49495H73.9206H73.9233Z" fill="#1F1F21"/>
<path d="M48.902 27.0505H46.2816V20.3114L43.3158 25.2294H43.0208L40.0549 20.3114V27.0505H37.4346V15.4605H40.0549L43.167 20.6095L46.279 15.4605H48.8993V27.0505H48.902Z" fill="#1F1F21"/>
<path d="M59.1921 18.7697V27.0505H56.7339V26.2716C56.1944 26.9001 55.3918 27.2815 54.2916 27.2815C52.1442 27.2815 50.377 25.3772 50.377 22.9088C50.377 20.4403 52.1469 18.536 54.2916 18.536C55.3891 18.536 56.1917 18.9174 56.7339 19.5459V18.767H59.1921V18.7697ZM56.7339 22.9114C56.7339 21.6705 55.9153 20.8916 54.7832 20.8916C53.6511 20.8916 52.8326 21.6705 52.8326 22.9114C52.8326 24.1524 53.6511 24.9313 54.7832 24.9313C55.9153 24.9313 56.7339 24.1524 56.7339 22.9114Z" fill="#1F1F21"/>
<path d="M65.9106 18.6058V21.4207C64.8955 21.2542 63.4524 21.6705 63.4524 23.309V27.0505H60.9941V18.7696H63.4524V20.2443C63.7793 19.1349 64.8769 18.6058 65.9106 18.6058Z" fill="#1F1F21"/>
<path d="M72.1343 27.0505L69.5139 23.3922V27.0505H67.0557V15.4605H69.5139V22.3984L71.9722 18.7723H74.8397L71.8579 22.9114L74.9221 27.0505H72.1369H72.1343Z" fill="#1F1F21"/>
<path d="M79.4929 25.0629C80.1653 25.0629 80.7393 24.797 81.0662 24.4344L83.0328 25.5759C82.2302 26.7014 81.0183 27.2815 79.461 27.2815C76.6599 27.2815 74.9219 25.3772 74.9219 22.9088C74.9219 20.4403 76.6918 18.536 79.2803 18.536C81.6721 18.536 83.4421 20.4081 83.4421 22.9088C83.4421 23.2579 83.4102 23.5883 83.3437 23.9026H77.5263C77.8372 24.7648 78.592 25.0629 79.4929 25.0629ZM80.9997 22.0492C80.7366 21.0877 80.0005 20.7412 79.2617 20.7412C78.3289 20.7412 77.7043 21.2058 77.4758 22.0492H80.9997Z" fill="#1F1F21"/>
<path d="M87.703 21.1548V24.0852C87.703 24.797 88.3089 24.8641 89.3906 24.797V27.0479C86.1802 27.3782 85.2448 26.4032 85.2448 24.0825V21.1521H83.9346V18.767H85.2448V17.193L87.703 16.449V18.767H89.3906V21.1521H87.703V21.1548Z" fill="#1F1F21"/>
<path d="M90.5352 16.551C90.5352 15.7399 91.2075 15.0603 92.0101 15.0603C92.8127 15.0603 93.4851 15.7399 93.4851 16.551C93.4851 17.3622 92.8127 18.0418 92.0101 18.0418C91.2075 18.0418 90.5352 17.3622 90.5352 16.551ZM90.7823 18.7697H93.2406V27.0505H90.7823V18.7697Z" fill="#1F1F21"/>
<path d="M102.907 21.966V27.0505H100.448V22.3313C100.448 21.3052 99.8106 20.8244 99.024 20.8244C98.1231 20.8244 97.5012 21.3536 97.5012 22.53V27.0505H95.043V18.7697H97.5012V19.5486C97.9424 18.9362 98.7636 18.5387 99.8452 18.5387C101.501 18.5387 102.909 19.7312 102.909 21.966H102.907Z" fill="#1F1F21"/>
<path d="M113 18.7697V26.6342C113 29.4169 110.852 30.5907 108.673 30.5907C106.97 30.5907 105.545 29.946 104.79 28.5869L106.887 27.3621C107.198 27.9423 107.674 28.4043 108.756 28.4043C109.904 28.4043 110.608 27.808 110.608 26.6315V25.8687C110.068 26.5483 109.282 26.9458 108.216 26.9458C105.891 26.9458 104.185 25.0253 104.185 22.7395C104.185 20.4538 105.888 18.5333 108.216 18.5333C109.282 18.5333 110.068 18.9308 110.608 19.6104V18.767H113V18.7697ZM110.608 22.7449C110.608 21.6034 109.789 20.8244 108.625 20.8244C107.461 20.8244 106.643 21.6034 106.643 22.7449C106.643 23.8865 107.461 24.6654 108.625 24.6654C109.789 24.6654 110.608 23.8865 110.608 22.7449Z" fill="#1F1F21"/>
<path d="M0 0V33H31.1574V0H0ZM27.3624 17.9585C27.3624 18.1277 27.2268 18.2647 27.0594 18.2647H21.6884C21.5529 18.2647 21.4333 18.356 21.3961 18.4903L19.371 25.9359C19.1638 26.4462 18.6748 26.7739 18.1326 26.7739C18.1034 26.7739 18.0742 26.7739 18.0449 26.7739C17.4709 26.7363 16.9872 26.3334 16.8384 25.772L13.3277 12.095C13.2507 11.7968 12.8334 11.7861 12.7431 12.0816L11.1565 17.3085C10.9837 17.8806 10.4708 18.2647 9.87554 18.2647H4.10063C3.93321 18.2647 3.79767 18.1277 3.79767 17.9585V16.2744C3.79767 16.1052 3.93321 15.9682 4.10063 15.9682H8.96931C9.10219 15.9682 9.21912 15.8795 9.25898 15.7506L11.8581 7.18232C12.0335 6.60215 12.5597 6.22343 13.1603 6.22611C13.7636 6.23686 14.2738 6.63975 14.4306 7.22798L17.8722 20.6445C17.9492 20.948 18.3745 20.9507 18.4568 20.6498L19.4109 17.15C19.7006 16.4328 20.3862 15.9682 21.1543 15.9682H27.0594C27.2268 15.9682 27.3624 16.1052 27.3624 16.2744V17.9585Z" fill="#1C67B1"/>
</g>
<defs>
<clipPath id="clip0_28_25">
<rect width="113" height="33" fill="white"/>
</clipPath>
</defs>
</svg>
