<svg width="36" height="36" viewBox="0 0 36 36" fill="none" xmlns="http://www.w3.org/2000/svg">
<path d="M7.5 8.25C6.40598 8.25 5.35677 8.6846 4.58318 9.45818C3.8096 10.2318 3.375 11.281 3.375 12.375V23.625C3.375 24.719 3.8096 25.7682 4.58318 26.5418C5.35677 27.3154 6.40598 27.75 7.5 27.75H20.25C21.344 27.75 22.3932 27.3154 23.1668 26.5418C23.9404 25.7682 24.375 24.719 24.375 23.625V21.234L29.5035 25.8015C30.711 26.877 32.625 26.019 32.625 24.4005V11.0475C32.625 9.4275 30.711 8.571 29.5035 9.6465L24.375 14.214V12.375C24.375 11.281 23.9404 10.2318 23.1668 9.45818C22.3932 8.6846 21.344 8.25 20.25 8.25H7.5Z" fill="#1A1A1A"/>
</svg>
