<svg width="26" height="26" viewBox="0 0 26 26" fill="none" xmlns="http://www.w3.org/2000/svg">
<path d="M13 26C11.2233 26 9.54417 25.6585 7.9625 24.9756C6.38083 24.2927 4.9998 23.361 3.8194 22.1806C2.639 21.0002 1.70733 19.6192 1.0244 18.0375C0.341467 16.4558 0 14.7767 0 13C0 11.2017 0.3523 9.51167 1.0569 7.93C1.7615 6.34833 2.71483 4.9725 3.9169 3.8025C5.11897 2.6325 6.52167 1.70647 8.125 1.0244C9.72833 0.342333 11.44 0.000866667 13.26 0C14.9933 0 16.6292 0.298133 18.1675 0.8944C19.7058 1.49067 21.0548 2.314 22.2144 3.3644C23.374 4.4148 24.2948 5.66063 24.9769 7.1019C25.659 8.54317 26 10.0975 26 11.765C26 14.2567 25.2417 16.169 23.725 17.5019C22.2083 18.8348 20.3667 19.5009 18.2 19.5H15.795C15.6 19.5 15.4648 19.5542 15.3894 19.6625C15.314 19.7708 15.2759 19.89 15.275 20.02C15.275 20.28 15.4375 20.654 15.7625 21.1419C16.0875 21.6298 16.25 22.1875 16.25 22.815C16.25 23.8983 15.9523 24.7 15.3569 25.22C14.7615 25.74 13.9759 26 13 26ZM5.85 14.3C6.41333 14.3 6.87917 14.1158 7.2475 13.7475C7.61583 13.3792 7.8 12.9133 7.8 12.35C7.8 11.7867 7.61583 11.3208 7.2475 10.9525C6.87917 10.5842 6.41333 10.4 5.85 10.4C5.28667 10.4 4.82083 10.5842 4.4525 10.9525C4.08417 11.3208 3.9 11.7867 3.9 12.35C3.9 12.9133 4.08417 13.3792 4.4525 13.7475C4.82083 14.1158 5.28667 14.3 5.85 14.3ZM9.75 9.1C10.3133 9.1 10.7792 8.91583 11.1475 8.5475C11.5158 8.17917 11.7 7.71333 11.7 7.15C11.7 6.58667 11.5158 6.12083 11.1475 5.7525C10.7792 5.38417 10.3133 5.2 9.75 5.2C9.18667 5.2 8.72083 5.38417 8.3525 5.7525C7.98417 6.12083 7.8 6.58667 7.8 7.15C7.8 7.71333 7.98417 8.17917 8.3525 8.5475C8.72083 8.91583 9.18667 9.1 9.75 9.1ZM16.25 9.1C16.8133 9.1 17.2792 8.91583 17.6475 8.5475C18.0158 8.17917 18.2 7.71333 18.2 7.15C18.2 6.58667 18.0158 6.12083 17.6475 5.7525C17.2792 5.38417 16.8133 5.2 16.25 5.2C15.6867 5.2 15.2208 5.38417 14.8525 5.7525C14.4842 6.12083 14.3 6.58667 14.3 7.15C14.3 7.71333 14.4842 8.17917 14.8525 8.5475C15.2208 8.91583 15.6867 9.1 16.25 9.1ZM20.15 14.3C20.7133 14.3 21.1792 14.1158 21.5475 13.7475C21.9158 13.3792 22.1 12.9133 22.1 12.35C22.1 11.7867 21.9158 11.3208 21.5475 10.9525C21.1792 10.5842 20.7133 10.4 20.15 10.4C19.5867 10.4 19.1208 10.5842 18.7525 10.9525C18.3842 11.3208 18.2 11.7867 18.2 12.35C18.2 12.9133 18.3842 13.3792 18.7525 13.7475C19.1208 14.1158 19.5867 14.3 20.15 14.3Z" fill="#1A1A1A"/>
</svg>
