<svg width="34" height="34" viewBox="0 0 34 34" fill="none" xmlns="http://www.w3.org/2000/svg">
<path d="M12.7503 17C12.7503 17.9393 12.3772 18.8402 11.713 19.5044C11.0488 20.1686 10.148 20.5417 9.20866 20.5417C8.26935 20.5417 7.36851 20.1686 6.70432 19.5044C6.04013 18.8402 5.66699 17.9393 5.66699 17C5.66699 16.0607 6.04013 15.1599 6.70432 14.4957C7.36851 13.8315 8.26935 13.4584 9.20866 13.4584C10.148 13.4584 11.0488 13.8315 11.713 14.4957C12.3772 15.1599 12.7503 16.0607 12.7503 17Z" stroke="#1A1A1A" stroke-width="1.5"/>
<path d="M19.8333 9.20837L12.75 14.1667M19.8333 24.7917L12.75 19.8334" stroke="#1A1A1A" stroke-width="1.5" stroke-linecap="round"/>
<path d="M26.9173 26.2083C26.9173 27.1476 26.5442 28.0485 25.88 28.7127C25.2158 29.3769 24.315 29.75 23.3757 29.75C22.4363 29.75 21.5355 29.3769 20.8713 28.7127C20.2071 28.0485 19.834 27.1476 19.834 26.2083C19.834 25.269 20.2071 24.3682 20.8713 23.704C21.5355 23.0398 22.4363 22.6667 23.3757 22.6667C24.315 22.6667 25.2158 23.0398 25.88 23.704C26.5442 24.3682 26.9173 25.269 26.9173 26.2083ZM26.9173 7.79167C26.9173 8.73097 26.5442 9.63181 25.88 10.296C25.2158 10.9602 24.315 11.3333 23.3757 11.3333C22.4363 11.3333 21.5355 10.9602 20.8713 10.296C20.2071 9.63181 19.834 8.73097 19.834 7.79167C19.834 6.85236 20.2071 5.95152 20.8713 5.28733C21.5355 4.62314 22.4363 4.25 23.3757 4.25C24.315 4.25 25.2158 4.62314 25.88 5.28733C26.5442 5.95152 26.9173 6.85236 26.9173 7.79167Z" stroke="#1A1A1A" stroke-width="1.5"/>
</svg>
