<svg width="56" height="56" viewBox="0 0 56 56" fill="none" xmlns="http://www.w3.org/2000/svg">
<path d="M39.667 23.3333C39.667 27.153 37.8353 30.5433 34.991 32.6737L37.791 36.407C39.8235 34.8871 41.4733 32.9139 42.6092 30.6443C43.745 28.3747 44.3355 25.8713 44.3337 23.3333H39.667ZM28.0003 11.6667C31.0945 11.6667 34.062 12.8958 36.2499 15.0838C38.4378 17.2717 39.667 20.2391 39.667 23.3333H44.3337C44.3337 19.0015 42.6128 14.847 39.5497 11.7839C36.4866 8.72083 32.3322 7 28.0003 7V11.6667ZM16.3337 23.3333C16.3337 20.2391 17.5628 17.2717 19.7508 15.0838C21.9387 12.8958 24.9061 11.6667 28.0003 11.6667V7C23.6685 7 19.514 8.72083 16.4509 11.7839C13.3878 14.847 11.667 19.0015 11.667 23.3333H16.3337ZM21.0097 32.6737C19.5567 31.5885 18.3773 30.1789 17.5655 28.5573C16.7537 26.9357 16.3318 25.1468 16.3337 23.3333H11.667C11.6652 25.8713 12.2557 28.3747 13.3915 30.6443C14.5273 32.9139 16.1771 34.8871 18.2097 36.407L21.0097 32.6737ZM25.66 46.067C25.586 42.5091 24.8509 38.9961 23.4923 35.707L19.1803 37.492C20.3143 40.2383 20.9327 43.1783 20.9957 46.165L25.66 46.067ZM31.1317 44.8257C30.1595 45.3119 29.0874 45.5651 28.0003 45.5651C26.9133 45.5651 25.8412 45.3119 24.869 44.8257L22.783 49C24.4029 49.8099 26.1892 50.2316 28.0003 50.2316C29.8115 50.2316 31.5977 49.8099 33.2177 49L31.1317 44.8257ZM32.5083 35.7093C31.1492 38.9975 30.4134 42.5098 30.3383 46.067L35.005 46.165C35.068 43.1783 35.6863 40.2383 36.8203 37.492L32.5083 35.7093ZM33.2177 49C33.7455 48.735 34.1909 48.3309 34.5059 47.8312C34.8209 47.3316 34.9934 46.7555 35.005 46.165L30.3383 46.067C30.3447 45.8074 30.4221 45.5545 30.5619 45.3357C30.7017 45.1169 30.8988 44.9405 31.1317 44.8257L33.2177 49ZM20.9957 46.165C21.019 47.341 21.6817 48.4493 22.783 49L24.869 44.8257C25.1019 44.9405 25.2989 45.1169 25.4388 45.3357C25.5786 45.5545 25.6559 45.8074 25.6623 46.067L20.9957 46.165ZM18.2097 36.407C18.5597 36.673 18.7673 36.827 18.912 36.9437C19.059 37.065 19.031 37.0603 18.9657 36.9763L22.6523 34.1157C22.216 33.551 21.5393 33.0703 21.0097 32.6737L18.2097 36.407ZM23.4923 35.707C23.3103 35.266 23.0793 34.664 22.6523 34.1157L18.9657 36.9763C18.9353 36.9343 18.9283 36.9133 18.9587 36.9763L19.0403 37.1583L19.1803 37.492L23.4923 35.707ZM34.991 32.6737C34.4613 33.0703 33.7823 33.5533 33.346 34.1157L37.035 36.9763C36.972 37.058 36.9417 37.065 37.0887 36.946C37.2333 36.827 37.4387 36.673 37.791 36.4093L34.991 32.6737ZM36.8203 37.492L36.9603 37.1583L37.042 36.9763C37.0723 36.9133 37.0653 36.9343 37.035 36.9763L33.346 34.1157C32.919 34.6663 32.6903 35.266 32.5083 35.7093L36.8203 37.492Z" fill="white"/>
<path d="M34.9812 37.3333C32.9154 38.7156 30.4856 39.4536 27.9999 39.4536C25.5142 39.4536 23.0844 38.7156 21.0186 37.3333" stroke="white" stroke-width="2"/>
</svg>
