<svg width="48" height="48" viewBox="0 0 48 48" fill="none" xmlns="http://www.w3.org/2000/svg">
<path d="M24 44C21.2667 44 18.6833 43.4747 16.25 42.424C13.8167 41.3733 11.692 39.94 9.876 38.124C8.06 36.308 6.62667 34.1833 5.576 31.75C4.52533 29.3167 4 26.7333 4 24C4 21.2333 4.542 18.6333 5.626 16.2C6.71 13.7667 8.17667 11.65 10.026 9.85C11.8753 8.05 14.0333 6.62533 16.5 5.576C18.9667 4.52667 21.6 4.00133 24.4 4C27.0667 4 29.5833 4.45867 31.95 5.376C34.3167 6.29333 36.392 7.56 38.176 9.176C39.96 10.792 41.3767 12.7087 42.426 14.926C43.4753 17.1433 44 19.5347 44 22.1C44 25.9333 42.8333 28.8753 40.5 30.926C38.1667 32.9767 35.3333 34.0013 32 34H28.3C28 34 27.792 34.0833 27.676 34.25C27.56 34.4167 27.5013 34.6 27.5 34.8C27.5 35.2 27.75 35.7753 28.25 36.526C28.75 37.2767 29 38.1347 29 39.1C29 40.7667 28.542 42 27.626 42.8C26.71 43.6 25.5013 44 24 44ZM13 26C13.8667 26 14.5833 25.7167 15.15 25.15C15.7167 24.5833 16 23.8667 16 23C16 22.1333 15.7167 21.4167 15.15 20.85C14.5833 20.2833 13.8667 20 13 20C12.1333 20 11.4167 20.2833 10.85 20.85C10.2833 21.4167 10 22.1333 10 23C10 23.8667 10.2833 24.5833 10.85 25.15C11.4167 25.7167 12.1333 26 13 26ZM19 18C19.8667 18 20.5833 17.7167 21.15 17.15C21.7167 16.5833 22 15.8667 22 15C22 14.1333 21.7167 13.4167 21.15 12.85C20.5833 12.2833 19.8667 12 19 12C18.1333 12 17.4167 12.2833 16.85 12.85C16.2833 13.4167 16 14.1333 16 15C16 15.8667 16.2833 16.5833 16.85 17.15C17.4167 17.7167 18.1333 18 19 18ZM29 18C29.8667 18 30.5833 17.7167 31.15 17.15C31.7167 16.5833 32 15.8667 32 15C32 14.1333 31.7167 13.4167 31.15 12.85C30.5833 12.2833 29.8667 12 29 12C28.1333 12 27.4167 12.2833 26.85 12.85C26.2833 13.4167 26 14.1333 26 15C26 15.8667 26.2833 16.5833 26.85 17.15C27.4167 17.7167 28.1333 18 29 18ZM35 26C35.8667 26 36.5833 25.7167 37.15 25.15C37.7167 24.5833 38 23.8667 38 23C38 22.1333 37.7167 21.4167 37.15 20.85C36.5833 20.2833 35.8667 20 35 20C34.1333 20 33.4167 20.2833 32.85 20.85C32.2833 21.4167 32 22.1333 32 23C32 23.8667 32.2833 24.5833 32.85 25.15C33.4167 25.7167 34.1333 26 35 26ZM24 40C24.3 40 24.542 39.9167 24.726 39.75C24.91 39.5833 25.0013 39.3667 25 39.1C25 38.6333 24.75 38.0833 24.25 37.45C23.75 36.8167 23.5 35.8667 23.5 34.6C23.5 33.2 23.9833 32.0833 24.95 31.25C25.9167 30.4167 27.1 30 28.5 30H32C34.2 30 36.0833 29.3587 37.65 28.076C39.2167 26.7933 40 24.8013 40 22.1C40 18.0667 38.4587 14.708 35.376 12.024C32.2933 9.34 28.6347 7.99867 24.4 8C19.8667 8 16 9.55 12.8 12.65C9.6 15.75 8 19.5333 8 24C8 28.4333 9.55867 32.2087 12.676 35.326C15.7933 38.4433 19.568 40.0013 24 40Z" fill="white"/>
</svg>
