<svg width="40" height="40" viewBox="0 0 40 40" fill="none" xmlns="http://www.w3.org/2000/svg">
<path d="M25.7946 21.4833L28.3196 35.6933C28.3479 35.8607 28.3244 36.0326 28.2523 36.1863C28.1802 36.3399 28.0629 36.4678 27.9161 36.553C27.7694 36.6382 27.6001 36.6765 27.4309 36.6629C27.2618 36.6492 27.1008 36.5843 26.9696 36.4767L21.0029 31.9983C20.7149 31.7831 20.365 31.6669 20.0054 31.6669C19.6459 31.6669 19.296 31.7831 19.0079 31.9983L13.0313 36.475C12.9001 36.5824 12.7394 36.6472 12.5704 36.6609C12.4015 36.6746 12.2324 36.6364 12.0857 36.5515C11.939 36.4665 11.8217 36.3389 11.7495 36.1856C11.6772 36.0322 11.6534 35.8605 11.6813 35.6933L14.2046 21.4833" stroke="white" stroke-width="3" stroke-linecap="round" stroke-linejoin="round"/>
<path d="M20 23.3333C25.5228 23.3333 30 18.8562 30 13.3333C30 7.81047 25.5228 3.33331 20 3.33331C14.4772 3.33331 10 7.81047 10 13.3333C10 18.8562 14.4772 23.3333 20 23.3333Z" stroke="white" stroke-width="3" stroke-linecap="round" stroke-linejoin="round"/>
</svg>
