<svg width="54" height="54" viewBox="0 0 54 54" fill="none" xmlns="http://www.w3.org/2000/svg">
<path d="M37.0495 36.8992L38.3121 35.5769L35.3798 32.4711L34.1227 33.7934L37.0495 36.8992ZM42.5459 35.0223L47.8374 38.0551L49.8172 34.2079L44.5285 31.178L42.5459 35.0223ZM48.8536 44.0799L44.9217 48.2045L47.8485 51.3073L51.7804 47.1857L48.8536 44.0799ZM42.5237 49.5297C38.5087 49.9267 28.1251 49.5735 16.8775 37.7866L13.9479 40.8895C26.22 53.7535 37.9023 54.384 42.9114 53.8907L42.5237 49.5297ZM16.8775 37.7866C6.15883 26.5484 4.38115 17.0996 4.15963 12.9985L0.0117168 13.2466C0.288614 18.4074 2.48995 28.8807 13.9479 40.8895L16.8775 37.7866ZM20.6849 19.7472L21.4795 18.9123L18.5555 15.8094L17.7608 16.6414L20.6849 19.7472ZM22.1109 8.30179L18.622 3.3862L15.2964 6.0133L18.7853 10.926L22.1109 8.30179ZM6.87876 2.31493L2.53148 6.86856L5.46105 9.97437L9.80557 5.42074L6.87876 2.31493ZM19.2228 18.1943C17.7553 16.6414 17.7553 16.6414 17.7553 16.6472H17.7497L17.7414 16.6589C17.6098 16.7987 17.492 16.9523 17.3898 17.1172C17.2403 17.3507 17.0769 17.6572 16.9384 18.0454C16.6014 19.0476 16.5174 20.1249 16.6948 21.1716C17.0658 23.6966 18.7161 27.033 22.9416 31.464L25.8711 28.3582C21.9143 24.2132 20.9728 21.6912 20.7984 20.5003C20.7153 19.934 20.8012 19.6538 20.8261 19.5895C20.8427 19.5506 20.8427 19.5448 20.8261 19.572C20.8014 19.6123 20.7736 19.6504 20.743 19.6859L20.7153 19.7151L20.6876 19.7413L19.2228 18.1943ZM22.9416 31.464C27.1698 35.8951 30.3513 37.6231 32.7493 38.0084C33.9759 38.2069 34.9644 38.0493 35.7148 37.7545C36.1352 37.5924 36.5279 37.3597 36.8778 37.0656L37.0162 36.9342L37.0356 36.9167L37.0439 36.9079L37.0467 36.9021C37.0467 36.9021 37.0495 36.8992 35.5847 35.3463C34.1171 33.7934 34.1254 33.7905 34.1254 33.7905L34.131 33.7846L34.1365 33.7788L34.1531 33.7642L34.1808 33.735L34.286 33.6474C34.3119 33.6299 34.3054 33.6319 34.2667 33.6533C34.1974 33.6795 33.9261 33.77 33.3806 33.6824C32.2342 33.4956 29.8252 32.5032 25.8711 28.3582L22.9416 31.464ZM18.622 3.38328C15.7976 -0.586552 10.2486 -1.21705 6.87876 2.31493L9.80557 5.42074C11.2787 3.87659 13.8926 4.03714 15.2964 6.0133L18.622 3.38328ZM4.1624 13.0014C4.10702 11.9914 4.54729 10.9347 5.46105 9.97729L2.52871 6.87148C1.04177 8.43023 -0.129501 10.637 0.0117168 13.2466L4.1624 13.0014ZM44.9217 48.2045C44.163 49.0043 43.3433 49.4538 42.5265 49.5326L42.9114 53.8907C44.9466 53.6892 46.6107 52.6092 47.8512 51.3103L44.9217 48.2045ZM21.4795 18.9123C24.207 16.0546 24.4091 11.539 22.1136 8.30471L18.7881 10.9289C19.904 12.5022 19.7379 14.566 18.5527 15.8124L21.4795 18.9123ZM47.8401 38.058C50.1024 39.3541 50.4541 42.4073 48.8564 44.0828L51.7859 47.1857C55.4964 43.2947 54.3528 36.8058 49.82 34.2108L47.8401 38.058ZM38.3121 35.5798C39.3754 34.4647 41.0866 34.1904 42.5486 35.0252L44.5312 31.1809C41.5297 29.4587 37.8082 29.9345 35.3825 32.474L38.3121 35.5798Z" fill="#ffffffff"/>
</svg>
