<svg width="44" height="44" viewBox="0 0 44 44" fill="none" xmlns="http://www.w3.org/2000/svg">
<path d="M8.24967 30.25C5.49967 32.56 4.58301 39.4167 4.58301 39.4167C4.58301 39.4167 11.4397 38.5 13.7497 35.75C15.0513 34.21 15.033 31.845 13.5847 30.415C12.8721 29.7349 11.9334 29.3419 10.9488 29.3114C9.96413 29.281 9.00295 29.6152 8.24967 30.25ZM21.9997 27.5L16.4997 22C17.4753 19.469 18.7037 17.0428 20.1663 14.7584C22.3025 11.3429 25.277 8.53064 28.8068 6.58921C32.3367 4.64779 36.3046 3.64173 40.333 3.66671C40.333 8.65338 38.903 17.4167 29.333 23.8334C27.017 25.2972 24.5603 26.5255 21.9997 27.5Z" stroke="white" stroke-width="3" stroke-linecap="round" stroke-linejoin="round"/>
<path d="M16.4997 22H7.33301C7.33301 22 8.34134 16.445 10.9997 14.6666C13.9697 12.6866 20.1663 14.6666 20.1663 14.6666M21.9997 27.5V36.6666C21.9997 36.6666 27.5547 35.6583 29.333 33C31.313 30.03 29.333 23.8333 29.333 23.8333" stroke="white" stroke-width="3" stroke-linecap="round" stroke-linejoin="round"/>
</svg>
