<svg width="40" height="40" viewBox="0 0 40 40" fill="none" xmlns="http://www.w3.org/2000/svg">
<path d="M5 10L10 11.6667M10 11.6667L5 26.6667C6.44262 27.7489 8.19739 28.334 10.0008 28.334C11.8043 28.334 13.559 27.7489 15.0017 26.6667M10 11.6667L15 26.6667M10 11.6667L20 8.33333M20 8.33333L30 11.6667M20 8.33333V5M20 8.33333V35M30 11.6667L35 10M30 11.6667L25 26.6667C26.4426 27.7489 28.1974 28.334 30.0008 28.334C31.8043 28.334 33.559 27.7489 35.0017 26.6667L30 11.6667ZM20 35H15M20 35H25" stroke="white" stroke-width="3" stroke-linecap="round" stroke-linejoin="round"/>
</svg>
