<svg width="40" height="40" viewBox="0 0 40 40" fill="none" xmlns="http://www.w3.org/2000/svg">
<path d="M33.3337 21.6667C33.3337 30 27.5003 34.1667 20.567 36.5833C20.2039 36.7064 19.8096 36.7005 19.4503 36.5667C12.5003 34.1667 6.66699 30 6.66699 21.6667V10C6.66699 9.55797 6.84259 9.13405 7.15515 8.82149C7.46771 8.50892 7.89163 8.33333 8.33366 8.33333C11.667 8.33333 15.8337 6.33333 18.7337 3.8C19.0867 3.49833 19.5359 3.33258 20.0003 3.33258C20.4647 3.33258 20.9139 3.49833 21.267 3.8C24.1837 6.35 28.3337 8.33333 31.667 8.33333C32.109 8.33333 32.5329 8.50892 32.8455 8.82149C33.1581 9.13405 33.3337 9.55797 33.3337 10V21.6667Z" stroke="white" stroke-width="3" stroke-linecap="round" stroke-linejoin="round"/>
</svg>
