<svg width="34" height="34" viewBox="0 0 34 34" fill="none" xmlns="http://www.w3.org/2000/svg">
<path d="M26.9167 4.25H7.08333C5.51853 4.25 4.25 5.51853 4.25 7.08333V26.9167C4.25 28.4815 5.51853 29.75 7.08333 29.75H26.9167C28.4815 29.75 29.75 28.4815 29.75 26.9167V7.08333C29.75 5.51853 28.4815 4.25 26.9167 4.25Z" stroke="#1A1A1A" stroke-width="2" stroke-linecap="round" stroke-linejoin="round"/>
<path d="M12.7503 15.5833C14.3151 15.5833 15.5837 14.3148 15.5837 12.75C15.5837 11.1852 14.3151 9.91663 12.7503 9.91663C11.1855 9.91663 9.91699 11.1852 9.91699 12.75C9.91699 14.3148 11.1855 15.5833 12.7503 15.5833Z" stroke="#1A1A1A" stroke-width="2" stroke-linecap="round" stroke-linejoin="round"/>
<path d="M29.75 21.25L25.3782 16.8781C24.8468 16.347 24.1263 16.0486 23.375 16.0486C22.6237 16.0486 21.9032 16.347 21.3718 16.8781L8.5 29.75" stroke="#1A1A1A" stroke-width="2" stroke-linecap="round" stroke-linejoin="round"/>
</svg>
