<svg width="32" height="32" viewBox="0 0 32 32" fill="none" xmlns="http://www.w3.org/2000/svg">
<g clip-path="url(#clip0_70_19)">
<path d="M22.6668 8C22.3132 8 21.974 8.14048 21.724 8.39052C21.4739 8.64057 21.3334 8.97971 21.3334 9.33333C21.3334 9.68696 21.4739 10.0261 21.724 10.2761C21.974 10.5262 22.3132 10.6667 22.6668 10.6667H24.7814L18.6668 16.7813L13.6094 11.724C13.3594 11.474 13.0203 11.3336 12.6668 11.3336C12.3132 11.3336 11.9741 11.474 11.7241 11.724L3.05744 20.3907C2.93009 20.5137 2.82852 20.6608 2.75864 20.8235C2.68876 20.9861 2.65198 21.1611 2.65044 21.3381C2.6489 21.5152 2.68264 21.6907 2.74968 21.8546C2.81672 22.0185 2.91572 22.1673 3.04091 22.2925C3.16611 22.4177 3.31497 22.5167 3.47884 22.5838C3.6427 22.6508 3.81827 22.6845 3.99531 22.683C4.17235 22.6815 4.34731 22.6447 4.50998 22.5748C4.67265 22.5049 4.81978 22.4033 4.94278 22.276L12.6668 14.552L17.7241 19.6093C17.9741 19.8593 18.3132 19.9997 18.6668 19.9997C19.0203 19.9997 19.3594 19.8593 19.6094 19.6093L26.6668 12.552V14.6667C26.6668 15.0203 26.8073 15.3594 27.0573 15.6095C27.3073 15.8595 27.6465 16 28.0001 16C28.3537 16 28.6929 15.8595 28.9429 15.6095C29.193 15.3594 29.3334 15.0203 29.3334 14.6667V9.33333C29.3334 8.97971 29.193 8.64057 28.9429 8.39052C28.6929 8.14048 28.3537 8 28.0001 8H22.6668Z" fill="black"/>
</g>
<defs>
<clipPath id="clip0_70_19">
<rect width="32" height="32" fill="white"/>
</clipPath>
</defs>
</svg>
