<svg width="30" height="30" viewBox="0 0 30 30" fill="none" xmlns="http://www.w3.org/2000/svg">
<path fill-rule="evenodd" clip-rule="evenodd" d="M15 1.56261C12.715 1.56261 10.8263 1.76386 9.3725 2.00886L9.205 2.03761C7.9425 2.24886 6.8925 2.42511 6.07125 3.43511C5.54625 4.08386 5.375 4.78511 5.33625 5.56636L4.72125 5.77136C4.1425 5.96386 3.63375 6.13386 3.2325 6.32136C2.7975 6.52386 2.39875 6.78386 2.09375 7.20761C1.78875 7.63136 1.6675 8.09136 1.6125 8.56761C1.5625 9.00886 1.5625 9.54261 1.5625 10.1539V10.3351C1.5625 10.8376 1.5625 11.2814 1.6 11.6526C1.64 12.0539 1.72875 12.4451 1.95 12.8226C2.17375 13.2014 2.47125 13.4689 2.80375 13.6989C3.11 13.9114 3.4975 14.1276 3.9375 14.3714L7.2375 16.2051C7.9125 17.5314 8.83875 18.7139 10.1125 19.5676C11.2213 20.3126 12.5525 20.7801 14.1288 20.9039C14.0863 21.0144 14.0639 21.1317 14.0625 21.2501V23.4376H12.275C11.7693 23.4376 11.2792 23.6129 10.8881 23.9335C10.497 24.2542 10.2291 24.7004 10.13 25.1964L9.85625 26.5626H7.5C7.25136 26.5626 7.0129 26.6614 6.83709 26.8372C6.66127 27.013 6.5625 27.2515 6.5625 27.5001C6.5625 27.7488 6.66127 27.9872 6.83709 28.163C7.0129 28.3388 7.25136 28.4376 7.5 28.4376H22.5C22.7486 28.4376 22.9871 28.3388 23.1629 28.163C23.3387 27.9872 23.4375 27.7488 23.4375 27.5001C23.4375 27.2515 23.3387 27.013 23.1629 26.8372C22.9871 26.6614 22.7486 26.5626 22.5 26.5626H20.1437L19.87 25.1964C19.7709 24.7004 19.503 24.2542 19.1119 23.9335C18.7208 23.6129 18.2307 23.4376 17.725 23.4376H15.9375V21.2501C15.9361 21.1317 15.9137 21.0144 15.8712 20.9039C17.4475 20.7789 18.7787 20.3126 19.8875 19.5689C21.1625 18.7139 22.0875 17.5314 22.7625 16.2051L26.0625 14.3714C26.5025 14.1276 26.89 13.9114 27.1963 13.6989C27.5275 13.4689 27.8262 13.2014 28.0487 12.8239C28.2712 12.4451 28.3612 12.0539 28.4 11.6526C28.4375 11.2814 28.4375 10.8376 28.4375 10.3351V10.1539C28.4375 9.54386 28.4375 9.00886 28.3875 8.56761C28.3325 8.09136 28.2125 7.63011 27.9062 7.20761C27.6013 6.78386 27.2025 6.52386 26.7688 6.32011C26.365 6.13261 25.8575 5.96386 25.2787 5.77136L24.6638 5.56636C24.6263 4.78386 24.455 4.08386 23.9287 3.43511C23.1087 2.42386 22.0587 2.24761 20.7962 2.03761L20.6275 2.00886C18.7674 1.70322 16.885 1.55395 15 1.56261ZM18.2313 26.5626L18.0312 25.5639C18.0171 25.493 17.9789 25.4293 17.923 25.3835C17.8672 25.3377 17.7972 25.3127 17.725 25.3126H12.275C12.2028 25.3127 12.1328 25.3377 12.077 25.3835C12.0211 25.4293 11.9829 25.493 11.9688 25.5639L11.7688 26.5626H18.2313ZM5.36 7.53511L5.3775 7.52886C5.4675 9.42886 5.68125 11.5289 6.21625 13.4914L4.88375 12.7526C4.3975 12.4814 4.0925 12.3114 3.8725 12.1589C3.67 12.0176 3.60375 11.9339 3.5675 11.8714C3.53 11.8089 3.49 11.7114 3.465 11.4664C3.43916 11.0761 3.42999 10.6849 3.4375 10.2939V10.2026C3.4375 9.52886 3.43875 9.10261 3.475 8.78011C3.51 8.48261 3.565 8.37136 3.615 8.30386C3.66375 8.23511 3.75125 8.14761 4.0225 8.02136C4.3175 7.88386 4.7225 7.74886 5.36 7.53511ZM24.6225 7.52761C24.5338 9.42761 24.3188 11.5276 23.785 13.4901L25.1163 12.7514C25.6025 12.4801 25.9075 12.3101 26.1275 12.1576C26.33 12.0164 26.3962 11.9326 26.4325 11.8701C26.47 11.8076 26.51 11.7101 26.535 11.4651C26.5613 11.1976 26.5625 10.8489 26.5625 10.2926V10.2014C26.5625 9.52761 26.5612 9.10136 26.525 8.77886C26.49 8.48136 26.435 8.37011 26.385 8.30261C26.3363 8.23386 26.2487 8.14636 25.9775 8.02011C25.6825 7.88261 25.2775 7.74636 24.64 7.53261L24.6225 7.52761ZM9.685 3.85761C11.4419 3.57001 13.2197 3.42952 15 3.43761C17.175 3.43761 18.9588 3.62886 20.315 3.85761C21.8238 4.11261 22.14 4.20761 22.4738 4.61761C22.8013 5.02011 22.8325 5.40261 22.765 7.09636C22.6525 9.91886 22.28 12.9664 21.1275 15.2839C20.5575 16.4264 19.8125 17.3614 18.8438 18.0114C17.88 18.6576 16.6362 19.0626 15 19.0626C13.3638 19.0626 12.1212 18.6576 11.1575 18.0114C10.1875 17.3614 9.4425 16.4264 8.87375 15.2826C7.72 12.9664 7.34875 9.92011 7.23625 7.09511C7.16875 5.40261 7.19875 5.02011 7.5275 4.61761C7.86 4.20761 8.17625 4.11261 9.685 3.85761Z" fill="white"/>
</svg>
