<svg width="32" height="28" viewBox="0 0 32 28" fill="none" xmlns="http://www.w3.org/2000/svg">
<g clip-path="url(#clip0_149_169)">
<path d="M3.55556 7C3.55556 6.19565 3.7165 5.39918 4.02919 4.65606C4.34189 3.91294 4.80022 3.23773 5.378 2.66897C5.95579 2.10021 6.64172 1.64905 7.39664 1.34124C8.15155 1.03343 8.96066 0.875 9.77778 0.875C10.5949 0.875 11.404 1.03343 12.1589 1.34124C12.9138 1.64905 13.5998 2.10021 14.1776 2.66897C14.7553 3.23773 15.2137 3.91294 15.5264 4.65606C15.8391 5.39918 16 6.19565 16 7C16 7.80435 15.8391 8.60082 15.5264 9.34394C15.2137 10.0871 14.7553 10.7623 14.1776 11.331C13.5998 11.8998 12.9138 12.351 12.1589 12.6588C11.404 12.9666 10.5949 13.125 9.77778 13.125C8.96066 13.125 8.15155 12.9666 7.39664 12.6588C6.64172 12.351 5.95579 11.8998 5.378 11.331C4.80022 10.7623 4.34189 10.0871 4.02919 9.34394C3.7165 8.60082 3.55556 7.80435 3.55556 7ZM0 25.375C0 20.0594 4.37778 15.75 9.77778 15.75C15.1778 15.75 19.5556 20.0594 19.5556 25.375V25.7031C19.5556 26.9719 18.5111 28 17.2222 28H2.33333C1.04444 28 0 26.9719 0 25.7031V25.375ZM24 3.5C25.4145 3.5 26.771 4.05312 27.7712 5.03769C28.7714 6.02226 29.3333 7.35761 29.3333 8.75C29.3333 10.1424 28.7714 11.4777 27.7712 12.4623C26.771 13.4469 25.4145 14 24 14C22.5855 14 21.229 13.4469 20.2288 12.4623C19.2286 11.4777 18.6667 10.1424 18.6667 8.75C18.6667 7.35761 19.2286 6.02226 20.2288 5.03769C21.229 4.05312 22.5855 3.5 24 3.5ZM24 16.625C28.4167 16.625 32 20.1523 32 24.5V25.725C32 26.9828 30.9667 28 29.6889 28H21.6444C22.0111 27.3164 22.2222 26.5344 22.2222 25.7031V25.375C22.2222 22.5586 21.2556 19.9664 19.6389 17.8992C20.8944 17.0953 22.3944 16.625 24 16.625Z" fill="white"/>
</g>
<defs>
<clipPath id="clip0_149_169">
<rect width="32" height="28" fill="white"/>
</clipPath>
</defs>
</svg>
