<svg width="28" height="28" viewBox="0 0 28 28" fill="none" xmlns="http://www.w3.org/2000/svg">
<path d="M13.9997 25.6666C12.3858 25.6666 10.8691 25.3601 9.44968 24.7473C8.03023 24.1344 6.79551 23.3033 5.74551 22.2541C4.69551 21.2049 3.86445 19.9701 3.25234 18.5499C2.64023 17.1297 2.33379 15.613 2.33301 13.9999C2.33223 12.3868 2.63868 10.8701 3.25234 9.44992C3.86601 8.0297 4.69706 6.79497 5.74551 5.74575C6.79395 4.69653 8.02868 3.86547 9.44968 3.25259C10.8707 2.6397 12.3873 2.33325 13.9997 2.33325C15.612 2.33325 17.1287 2.6397 18.5497 3.25259C19.9707 3.86547 21.2054 4.69653 22.2538 5.74575C23.3023 6.79497 24.1337 8.0297 24.7482 9.44992C25.3626 10.8701 25.6687 12.3868 25.6663 13.9999C25.664 15.613 25.3576 17.1297 24.747 18.5499C24.1365 19.9701 23.3054 21.2049 22.2538 22.2541C21.2023 23.3033 19.9676 24.1348 18.5497 24.7484C17.1318 25.3621 15.6151 25.6681 13.9997 25.6666ZM13.9997 23.3333C16.6052 23.3333 18.8122 22.4291 20.6205 20.6208C22.4288 18.8124 23.333 16.6055 23.333 13.9999C23.333 11.3944 22.4288 9.18742 20.6205 7.37909C18.8122 5.57075 16.6052 4.66659 13.9997 4.66659C11.3941 4.66659 9.18718 5.57075 7.37884 7.37909C5.57051 9.18742 4.66634 11.3944 4.66634 13.9999C4.66634 16.6055 5.57051 18.8124 7.37884 20.6208C9.18718 22.4291 11.3941 23.3333 13.9997 23.3333ZM13.9997 20.9999C12.0552 20.9999 10.4025 20.3194 9.04134 18.9583C7.68023 17.5971 6.99968 15.9444 6.99968 13.9999C6.99968 12.0555 7.68023 10.4027 9.04134 9.04158C10.4025 7.68047 12.0552 6.99992 13.9997 6.99992C15.9441 6.99992 17.5969 7.68047 18.958 9.04158C20.3191 10.4027 20.9997 12.0555 20.9997 13.9999C20.9997 15.9444 20.3191 17.5971 18.958 18.9583C17.5969 20.3194 15.9441 20.9999 13.9997 20.9999ZM13.9997 18.6666C15.283 18.6666 16.3816 18.2096 17.2955 17.2958C18.2094 16.3819 18.6663 15.2833 18.6663 13.9999C18.6663 12.7166 18.2094 11.618 17.2955 10.7041C16.3816 9.7902 15.283 9.33325 13.9997 9.33325C12.7163 9.33325 11.6177 9.7902 10.7038 10.7041C9.78995 11.618 9.33301 12.7166 9.33301 13.9999C9.33301 15.2833 9.78995 16.3819 10.7038 17.2958C11.6177 18.2096 12.7163 18.6666 13.9997 18.6666ZM13.9997 16.3333C13.358 16.3333 12.8089 16.105 12.3523 15.6484C11.8958 15.1919 11.6671 14.6424 11.6663 13.9999C11.6656 13.3575 11.8942 12.8084 12.3523 12.3526C12.8105 11.8968 13.3596 11.6681 13.9997 11.6666C14.6398 11.665 15.1893 11.8937 15.6482 12.3526C16.1071 12.8115 16.3353 13.3606 16.333 13.9999C16.3307 14.6393 16.1024 15.1888 15.6482 15.6484C15.194 16.1081 14.6445 16.3364 13.9997 16.3333Z" fill="white"/>
</svg>
