<svg width="54" height="43" viewBox="0 0 54 43" fill="none" xmlns="http://www.w3.org/2000/svg">
    <path
        d="M5.4 43C3.915 43 2.6442 42.4741 1.5876 41.4224C0.531 40.3707 0.0018 39.1049 0 37.625V5.375C0 3.89687 0.5292 2.63196 1.5876 1.58025C2.646 0.528541 3.9168 0.00179167 5.4 0H48.6C50.085 0 51.3567 0.526749 52.4151 1.58025C53.4735 2.63375 54.0018 3.89867 54 5.375V37.625C54 39.1031 53.4717 40.3689 52.4151 41.4224C51.3585 42.4759 50.0868 43.0018 48.6 43H5.4ZM27 24.1875L5.4 10.75V37.625H48.6V10.75L27 24.1875ZM27 18.8125L48.6 5.375H5.4L27 18.8125ZM5.4 10.75V5.375V37.625V10.75Z"
        fill="#ffffffff" />
</svg>